<?xml version="1.0" standalone="no"?>
<svg xmlns="http://www.w3.org/2000/svg" xmlns:xlink="http://www.w3.org/1999/xlink" width="159pt" height="276pt" viewBox="0.00 0.00 158.69 276.16">
<g id="graph0" class="graph" transform="translate(4,272.1600036621094) scale(1)" data-name="ArvoreBin">

<polygon fill="white" stroke="none" points="-4,4 -4,-272.16 154.69,-272.16 154.69,4 -4,4" style=""/>
<!-- 4 -->
<g id="node1" class="node" pointer-events="visible" data-name="4">

<ellipse fill="#9370db" stroke="black" cx="46" cy="-250.16" rx="18" ry="18" style=""/>
<text text-anchor="middle" x="46" y="-245.96" font-family="Times,serif" font-size="14.00" style="">4</text>
</g>
<!-- 3 -->
<g id="node2" class="node" pointer-events="visible" data-name="3">

<ellipse fill="#9370db" stroke="black" cx="18" cy="-175.47" rx="18" ry="18" style=""/>
<text text-anchor="middle" x="18" y="-171.27" font-family="Times,serif" font-size="14.00" style="">3</text>
</g>
<!-- 4&#45;&gt;3 -->
<g id="edge1" class="edge" data-name="4-&gt;3">

<path fill="none" stroke="black" d="M39.79,-233.03C36.44,-224.34 32.22,-213.38 28.39,-203.44" style=""/>
<polygon fill="black" stroke="black" points="31.7,-202.29 24.84,-194.22 25.17,-204.81 31.7,-202.29" style=""/>
</g>
<!-- 10 -->
<g id="node3" class="node" pointer-events="visible" data-name="10">

<ellipse fill="#9370db" stroke="black" cx="75" cy="-175.47" rx="20.89" ry="20.89" style=""/>
<text text-anchor="middle" x="75" y="-171.27" font-family="Times,serif" font-size="14.00" style="">10</text>
</g>
<!-- 4&#45;&gt;10 -->
<g id="edge2" class="edge" data-name="4-&gt;10">

<path fill="none" stroke="black" d="M52.44,-233.03C55.63,-225.03 59.58,-215.12 63.28,-205.84" style=""/>
<polygon fill="black" stroke="black" points="66.44,-207.38 66.89,-196.79 59.94,-204.78 66.44,-207.38" style=""/>
</g>
<!-- 1 -->
<g id="node4" class="node" pointer-events="visible" data-name="1">

<ellipse fill="#9370db" stroke="black" cx="18" cy="-98.08" rx="18" ry="18" style=""/>
<text text-anchor="middle" x="18" y="-93.88" font-family="Times,serif" font-size="14.00" style="">1</text>
</g>
<!-- 3&#45;&gt;1 -->
<g id="edge3" class="edge" data-name="3-&gt;1">

<path fill="none" stroke="black" d="M18,-156.98C18,-148.32 18,-137.65 18,-127.83" style=""/>
<polygon fill="black" stroke="black" points="21.5,-127.98 18,-117.98 14.5,-127.98 21.5,-127.98" style=""/>
</g>
<!-- 6 -->
<g id="node5" class="node" pointer-events="visible" data-name="6">

<ellipse fill="#9370db" stroke="black" cx="73" cy="-98.08" rx="18" ry="18" style=""/>
<text text-anchor="middle" x="73" y="-93.88" font-family="Times,serif" font-size="14.00" style="">6</text>
</g>
<!-- 10&#45;&gt;6 -->
<g id="edge4" class="edge" data-name="10-&gt;6">

<path fill="none" stroke="black" d="M74.46,-154.26C74.25,-146.17 74,-136.69 73.76,-127.89" style=""/>
<polygon fill="black" stroke="black" points="77.27,-127.94 73.5,-118.03 70.27,-128.12 77.27,-127.94" style=""/>
</g>
<!-- 15 -->
<g id="node6" class="node" pointer-events="visible" data-name="15">

<ellipse fill="#9370db" stroke="black" cx="130" cy="-98.08" rx="20.89" ry="20.89" style=""/>
<text text-anchor="middle" x="130" y="-93.88" font-family="Times,serif" font-size="14.00" style="">15</text>
</g>
<!-- 10&#45;&gt;15 -->
<g id="edge5" class="edge" data-name="10-&gt;15">

<path fill="none" stroke="black" d="M86.93,-158.11C94.02,-148.4 103.16,-135.86 111.2,-124.85" style=""/>
<polygon fill="black" stroke="black" points="113.94,-127.03 117.01,-116.89 108.29,-122.91 113.94,-127.03" style=""/>
</g>
<!-- 7 -->
<g id="node7" class="node" pointer-events="visible" data-name="7">

<ellipse fill="#9370db" stroke="black" cx="73" cy="-20.69" rx="18" ry="18" style=""/>
<text text-anchor="middle" x="73" y="-16.49" font-family="Times,serif" font-size="14.00" style="">7</text>
</g>
<!-- 6&#45;&gt;7 -->
<g id="edge6" class="edge" data-name="6-&gt;7">

<path fill="none" stroke="black" d="M73,-79.6C73,-70.94 73,-60.26 73,-50.44" style=""/>
<polygon fill="black" stroke="black" points="76.5,-50.6 73,-40.6 69.5,-50.6 76.5,-50.6" style=""/>
</g>
<!-- 20 -->
<g id="node8" class="node" pointer-events="visible" data-name="20">

<ellipse fill="#9370db" stroke="black" cx="130" cy="-20.69" rx="20.89" ry="20.89" style=""/>
<text text-anchor="middle" x="130" y="-16.49" font-family="Times,serif" font-size="14.00" style="">20</text>
</g>
<!-- 15&#45;&gt;20 -->
<g id="edge7" class="edge" data-name="15-&gt;20">

<path fill="none" stroke="black" d="M130,-76.88C130,-69.61 130,-61.23 130,-53.23" style=""/>
<polygon fill="black" stroke="black" points="133.5,-53.47 130,-43.47 126.5,-53.47 133.5,-53.47" style=""/>
</g>
</g>
</svg>