<?xml version="1.0" standalone="no"?>
<svg xmlns="http://www.w3.org/2000/svg" xmlns:xlink="http://www.w3.org/1999/xlink" width="98pt" height="265pt" viewBox="0.00 0.00 98 265.39">
<g id="graph0" class="graph" transform="translate(4,261.3900146484375) scale(1)" data-name="ArvoreBin">

<polygon fill="white" stroke="none" points="-4,4 -4,-261.39 94,-261.39 94,4 -4,4"/>
<!-- 4 -->
<g id="node1" class="node" pointer-events="visible" data-name="4">

<ellipse fill="#9370db" stroke="black" cx="45" cy="-239.39" rx="18" ry="18"/>
<text text-anchor="middle" x="45" y="-235.19" font-family="Times,serif" font-size="14.00">4</text>
</g>
<!-- 10 -->
<g id="node2" class="node" pointer-events="visible" data-name="10">

<ellipse fill="#9370db" stroke="black" cx="45" cy="-164.69" rx="20.89" ry="20.89"/>
<text text-anchor="middle" x="45" y="-160.49" font-family="Times,serif" font-size="14.00">10</text>
</g>
<!-- 4&#45;&gt;10 -->
<g id="edge1" class="edge" data-name="4-&gt;10">

<path fill="none" stroke="black" d="M45,-221.16C45,-213.97 45,-205.38 45,-197.14"/>
<polygon fill="black" stroke="black" points="48.5,-197.4 45,-187.4 41.5,-197.4 48.5,-197.4"/>
</g>
<!-- 6 -->
<g id="node3" class="node" pointer-events="visible" data-name="6">

<ellipse fill="#9370db" stroke="black" cx="45" cy="-90" rx="18" ry="18"/>
<text text-anchor="middle" x="45" y="-85.8" font-family="Times,serif" font-size="14.00">6</text>
</g>
<!-- 10&#45;&gt;6 -->
<g id="edge2" class="edge" data-name="10-&gt;6">

<path fill="none" stroke="black" d="M45,-143.44C45,-136.08 45,-127.61 45,-119.65"/>
<polygon fill="black" stroke="black" points="48.5,-119.7 45,-109.7 41.5,-119.7 48.5,-119.7"/>
</g>
<!-- 5 -->
<g id="node4" class="node" pointer-events="visible" data-name="5">

<ellipse fill="#9370db" stroke="black" cx="18" cy="-18" rx="18" ry="18"/>
<text text-anchor="middle" x="18" y="-13.8" font-family="Times,serif" font-size="14.00">5</text>
</g>
<!-- 6&#45;&gt;5 -->
<g id="edge3" class="edge" data-name="6-&gt;5">

<path fill="none" stroke="black" d="M38.74,-72.76C35.64,-64.72 31.81,-54.81 28.3,-45.69"/>
<polygon fill="black" stroke="black" points="31.64,-44.63 24.77,-36.56 25.11,-47.15 31.64,-44.63"/>
</g>
<!-- 7 -->
<g id="node5" class="node" pointer-events="visible" data-name="7">

<ellipse fill="#9370db" stroke="black" cx="72" cy="-18" rx="18" ry="18"/>
<text text-anchor="middle" x="72" y="-13.8" font-family="Times,serif" font-size="14.00">7</text>
</g>
<!-- 6&#45;&gt;7 -->
<g id="edge4" class="edge" data-name="6-&gt;7">

<path fill="none" stroke="black" d="M51.26,-72.76C54.36,-64.72 58.19,-54.81 61.7,-45.69"/>
<polygon fill="black" stroke="black" points="64.89,-47.15 65.23,-36.56 58.36,-44.63 64.89,-47.15"/>
</g>
</g>
</svg>