<?xml version="1.0" standalone="no"?>
<svg xmlns="http://www.w3.org/2000/svg" xmlns:xlink="http://www.w3.org/1999/xlink" width="144pt" height="398pt" viewBox="0.00 0.00 143.52 397.56">
<g id="graph0" class="graph" transform="translate(18.476846154379686,318.66690732634714) scale(0.7578582832551991)" data-name="ArvoreBin">

<polygon fill="white" stroke="none" points="-4,4 -4,-393.56 139.52,-393.56 139.52,4 -4,4" style=""/>
<!-- 500 -->
<g id="node1" class="node" pointer-events="visible" data-name="500">

<ellipse fill="#9370db" stroke="black" cx="78" cy="-364.04" rx="25.54" ry="25.54" style=""/>
<text text-anchor="middle" x="78" y="-359.84" font-family="Times,serif" font-size="14.00" style="">500</text>
</g>
<!-- 100 -->
<g id="node2" class="node" pointer-events="visible" data-name="100">

<ellipse fill="#9370db" stroke="black" cx="78" cy="-277" rx="25.54" ry="25.54" style=""/>
<text text-anchor="middle" x="78" y="-272.8" font-family="Times,serif" font-size="14.00" style="">100</text>
</g>
<!-- 500&#45;&gt;100 -->
<g id="edge1" class="edge" data-name="500-&gt;100">

<path fill="none" stroke="black" d="M78,-338.44C78,-330.84 78,-322.3 78,-314.09" style=""/>
<polygon fill="black" stroke="black" points="81.5,-314.35 78,-304.35 74.5,-314.35 81.5,-314.35" style=""/>
</g>
<!-- 30 -->
<g id="node3" class="node" pointer-events="visible" data-name="30">

<ellipse fill="#9370db" stroke="black" cx="46" cy="-189.95" rx="20.89" ry="20.89" style=""/>
<text text-anchor="middle" x="46" y="-185.75" font-family="Times,serif" font-size="14.00" style="">30</text>
</g>
<!-- 100&#45;&gt;30 -->
<g id="edge2" class="edge" data-name="100-&gt;30">

<path fill="none" stroke="black" d="M69.26,-252.76C65.49,-242.76 61.05,-230.95 57.06,-220.35" style=""/>
<polygon fill="black" stroke="black" points="60.45,-219.41 53.65,-211.28 53.9,-221.87 60.45,-219.41" style=""/>
</g>
<!-- 320 -->
<g id="node4" class="node" pointer-events="visible" data-name="320">

<ellipse fill="#9370db" stroke="black" cx="110" cy="-189.95" rx="25.54" ry="25.54" style=""/>
<text text-anchor="middle" x="110" y="-185.75" font-family="Times,serif" font-size="14.00" style="">320</text>
</g>
<!-- 100&#45;&gt;320 -->
<g id="edge3" class="edge" data-name="100-&gt;320">

<path fill="none" stroke="black" d="M86.74,-252.76C89.99,-244.13 93.74,-234.17 97.27,-224.79" style=""/>
<polygon fill="black" stroke="black" points="100.49,-226.17 100.73,-215.58 93.94,-223.71 100.49,-226.17" style=""/>
</g>
<!-- 15 -->
<g id="node5" class="node" pointer-events="visible" data-name="15">

<ellipse fill="#9370db" stroke="black" cx="46" cy="-102.91" rx="20.89" ry="20.89" style=""/>
<text text-anchor="middle" x="46" y="-98.71" font-family="Times,serif" font-size="14.00" style="">15</text>
</g>
<!-- 30&#45;&gt;15 -->
<g id="edge4" class="edge" data-name="30-&gt;15">

<path fill="none" stroke="black" d="M46,-168.8C46,-158.91 46,-146.78 46,-135.68" style=""/>
<polygon fill="black" stroke="black" points="49.5,-135.73 46,-125.73 42.5,-135.73 49.5,-135.73" style=""/>
</g>
<!-- 111 -->
<g id="node8" class="node" pointer-events="visible" data-name="111">

<ellipse fill="#9370db" stroke="black" cx="110" cy="-102.91" rx="25.54" ry="25.54" style=""/>
<text text-anchor="middle" x="110" y="-98.71" font-family="Times,serif" font-size="14.00" style="">111</text>
</g>
<!-- 320&#45;&gt;111 -->
<g id="edge7" class="edge" data-name="320-&gt;111">

<path fill="none" stroke="black" d="M110,-164.35C110,-156.75 110,-148.21 110,-140" style=""/>
<polygon fill="black" stroke="black" points="113.5,-140.26 110,-130.26 106.5,-140.26 113.5,-140.26" style=""/>
</g>
<!-- 7 -->
<g id="node6" class="node" pointer-events="visible" data-name="7">

<ellipse fill="#9370db" stroke="black" cx="18" cy="-20.69" rx="18" ry="18" style=""/>
<text text-anchor="middle" x="18" y="-16.49" font-family="Times,serif" font-size="14.00" style="">7</text>
</g>
<!-- 15&#45;&gt;7 -->
<g id="edge5" class="edge" data-name="15-&gt;7">

<path fill="none" stroke="black" d="M39.36,-82.9C35.8,-72.68 31.34,-59.91 27.42,-48.69" style=""/>
<polygon fill="black" stroke="black" points="30.83,-47.84 24.23,-39.55 24.23,-50.15 30.83,-47.84" style=""/>
</g>
<!-- 20 -->
<g id="node7" class="node" pointer-events="visible" data-name="20">

<ellipse fill="#9370db" stroke="black" cx="75" cy="-20.69" rx="20.89" ry="20.89" style=""/>
<text text-anchor="middle" x="75" y="-16.49" font-family="Times,serif" font-size="14.00" style="">20</text>
</g>
<!-- 15&#45;&gt;20 -->
<g id="edge6" class="edge" data-name="15-&gt;20">

<path fill="none" stroke="black" d="M52.87,-82.9C56.24,-73.58 60.38,-62.13 64.16,-51.66" style=""/>
<polygon fill="black" stroke="black" points="67.45,-52.86 67.56,-42.27 60.87,-50.48 67.45,-52.86" style=""/>
</g>
</g>
</svg>